<svg width="80" height="35" viewBox="0 0 80 35" fill="none" xmlns="http://www.w3.org/2000/svg">
<path d="M50.5915 25.4973C51.3286 25.7401 52.1184 25.7747 52.874 25.5973C53.971 25.4457 54.9976 24.9692 55.8216 24.2293C56.0918 23.8633 56.4892 23.6116 56.9356 23.5237C57.382 23.4358 57.8452 23.5181 58.2341 23.7543C59.6206 24.2918 61.1387 24.3913 62.5836 24.0394C64.0285 23.6875 65.3307 22.9011 66.3147 21.7863C66.9948 20.9863 67.0869 21.5683 67.2149 21.7723C67.3232 22.0965 67.5264 22.3808 67.7982 22.5881C68.07 22.7955 68.3978 22.9165 68.7392 22.9353C70.6656 23.1683 70.8506 20.9353 70.8506 20.9353C70.9777 19.3543 70.1335 16.0893 72.1419 13.6713C74.1743 11.2243 75.6426 11.5813 77.427 11.6903C79.2823 11.8033 79.8835 10.8903 79.9885 9.97032C80.1035 8.97032 79.3884 7.13033 76.3998 7.13033C75.3181 7.19556 74.2618 7.48459 73.2976 7.97913C72.3335 8.47367 71.4825 9.16295 70.7986 10.0033C70.0905 10.7763 70.1835 10.4373 69.6984 9.39333C69.0372 7.93733 68.1501 7.79832 67.2349 8.00632C67.0015 8.05372 66.7801 8.14745 66.5836 8.28195C66.3871 8.41646 66.2196 8.58899 66.091 8.78937C65.9624 8.98974 65.8753 9.21388 65.8348 9.4485C65.7944 9.68313 65.8015 9.92347 65.8556 10.1553L65.9126 10.4793C67.553 18.6543 62.2889 20.2453 61.4747 20.4243C60.9316 20.5533 60.8516 20.1373 61.3917 19.6043C62.1516 18.8579 62.7526 17.9655 63.1585 16.9807C63.5643 15.996 63.7666 14.9393 63.7532 13.8743C63.8052 12.7647 63.4406 11.6757 62.731 10.821C62.0213 9.96624 61.0178 9.40748 59.9174 9.25432C58.782 9.05535 57.6131 9.19229 56.5545 9.64832C55.4958 10.1043 54.5934 10.8596 53.9582 11.8213C51.5827 15.2013 53.7111 20.0953 53.7111 20.0953C53.7111 20.0953 54.1262 21.0283 52.974 21.3493C52.7309 21.4562 52.4678 21.5096 52.2023 21.5058C51.9368 21.502 51.6752 21.4411 51.4354 21.3272C51.1955 21.2134 50.9829 21.0493 50.8121 20.846C50.6413 20.6428 50.5163 20.4052 50.4455 20.1493C49.5263 17.9493 51.0936 11.8083 51.3747 10.5323C51.4353 10.1027 51.6321 9.70387 51.9361 9.3943C52.2402 9.08474 52.6355 8.88076 53.064 8.81232C58.3983 7.26677 63.5962 5.28474 68.6052 2.88633C69.0467 2.73837 69.4123 2.42271 69.623 2.00753C69.8338 1.59234 69.8727 1.11095 69.7314 0.667317C69.2953 -0.455683 67.689 0.103317 66.8038 0.445317C58.8592 3.51332 54.3353 4.66432 53.5361 4.97832C52.8019 5.26632 52.867 5.04633 52.917 4.57833C52.917 4.57833 52.989 4.19432 53.242 2.67832C53.6471 0.260318 51.7717 0.129322 51.2416 0.129322C50.8152 0.130549 50.397 0.246166 50.0305 0.4641C49.6641 0.682035 49.3628 0.994299 49.1582 1.36832C48.5011 2.35632 48.4581 4.03432 48.286 5.21332C48.173 6.14232 47.7529 6.37832 47.4569 6.50232C46.8347 6.72605 46.1868 6.87051 45.5285 6.93231C44.5983 7.05831 44.8283 6.25333 44.8283 6.25333C44.9098 5.55903 45.0273 4.86942 45.1804 4.18732C45.2912 3.87471 45.3163 3.53812 45.253 3.21254C45.1897 2.88697 45.0403 2.58429 44.8204 2.33596C44.6005 2.08762 44.3181 1.9027 44.0025 1.80042C43.687 1.69813 43.3498 1.68222 43.026 1.75432C40.6595 2.04032 40.6155 4.28733 40.3524 6.26833C40.2524 7.08633 40.3254 7.42631 39.2822 7.58531C34.6576 8.14207 30.0061 8.44753 25.3484 8.50032C24.7022 8.50587 24.0846 8.76728 23.6309 9.22727C23.1772 9.68725 22.9244 10.3083 22.9279 10.9543C22.8999 12.7543 24.3282 12.9703 25.2453 13.0403C28.1729 13.2623 37.9179 12.0223 37.9179 12.0223C39.2182 11.7903 39.3672 12.1753 39.1562 13.1593C38.185 18.8033 38.494 20.5853 38.6771 22.1113C38.8601 23.6373 37.0017 25.1113 36.2566 23.5113C35.3564 21.5283 35.9565 19.7173 36.5666 16.5113C36.6857 16.1647 36.7082 15.7923 36.6317 15.4339C36.5552 15.0755 36.3827 14.7446 36.1326 14.4768C35.8824 14.2089 35.5641 14.0141 35.2117 13.9133C34.8593 13.8125 34.4862 13.8093 34.1321 13.9043C32.8939 14.0433 31.6406 14.7043 31.7397 17.6203C31.8071 19.3061 31.6891 20.9943 31.3876 22.6543C30.9235 25.2063 29.1641 26.5643 28.0659 24.9703C26.7566 22.5703 28.376 17.0523 28.376 17.0523C28.686 15.6383 27.9399 14.6253 26.2225 14.4593C24.0782 14.5016 21.9411 14.7217 19.8332 15.1173C19.6389 15.1537 19.4385 15.1404 19.2506 15.0789C19.0626 15.0174 18.8933 14.9096 18.758 14.7653C17.9622 14.1365 17.1128 13.5787 16.2195 13.0983C15.4433 12.7343 15.7254 12.5243 15.8124 12.4563C16.321 12.1483 16.8107 11.81 17.2787 11.4433C19.5452 9.52931 20.0303 4.75932 14.9983 3.05432C8.70697 1.18233 1.55052 6.76533 0.734353 7.82433C-0.0658097 8.86433 -0.419882 10.2513 0.762359 11.3053C1.02654 11.5439 1.33831 11.7237 1.6771 11.8329C2.0159 11.9421 2.374 11.9783 2.72779 11.939C3.08159 11.8996 3.42302 11.7858 3.72956 11.6048C4.0361 11.4239 4.30077 11.18 4.50612 10.8893C5.02933 10.0644 5.70239 9.34464 6.49052 8.76732C8.855 6.82632 11.8106 6.63232 13.0489 7.51932C14.2311 8.49032 13.507 9.96632 12.6688 10.5973C12.1127 11.1103 10.6684 11.4843 9.8122 12.4623C9.64845 12.6588 9.53587 12.8927 9.48448 13.1432C9.43309 13.3937 9.44449 13.653 9.51767 13.8981C9.59085 14.1431 9.72353 14.3662 9.90389 14.5476C10.0842 14.7289 10.3067 14.8628 10.5513 14.9373C11.4095 15.2213 13.0429 15.7483 13.0429 15.7483C13.972 16.0813 13.831 16.1943 13.1269 16.4553C11.4069 17.0814 9.7265 17.811 8.09484 18.6403C7.54573 18.9313 7.52673 18.6313 7.60275 17.9613C7.71577 16.4983 7.95482 14.3833 8.05284 13.7323C8.12201 13.4629 8.12779 13.1811 8.06971 12.909C8.01163 12.637 7.89127 12.3821 7.71809 12.1644C7.54491 11.9467 7.32362 11.7721 7.07158 11.6542C6.81954 11.5364 6.54362 11.4786 6.26548 11.4853C4.47811 11.4293 4.01302 12.9283 3.95701 14.1203C3.902 15.2823 3.75696 18.7303 3.60493 20.3533C3.57281 21.2908 3.26414 22.1978 2.71775 22.9603C1.93115 23.8446 1.32015 24.8705 0.917389 25.9833C-0.471894 30.4903 2.66274 33.4993 6.51853 33.9293C10.3743 34.3593 16.0745 32.9383 19.1431 28.8613C20.125 27.5431 20.8274 26.0383 21.2073 24.4392C21.5872 22.84 21.6366 21.1802 21.3525 19.5613C21.1625 18.5733 21.3205 18.5833 22.2387 18.5423C22.5434 18.5219 22.8488 18.5173 23.1539 18.5283C23.759 18.5423 23.717 19.2493 23.675 19.5123C23.3993 20.7824 23.3187 22.087 23.436 23.3813C23.76 27.5133 25.8005 29.0813 28.1929 29.4813C30.5854 29.8813 32.9479 27.7813 33.583 27.2623C34.0411 26.8873 34.3712 27.1093 34.7653 27.4703C37.3788 29.4113 39.8613 27.0343 40.4234 26.4163C41.0486 25.7303 41.2816 26.0833 41.9717 26.4853C45.3274 28.1603 47.1648 25.5013 47.7559 24.8763C48.347 24.2513 48.8111 24.5573 49.2622 24.8763C49.6806 25.1404 50.1306 25.3507 50.6015 25.5023L50.5915 25.4973ZM15.2163 26.3803C14.2136 27.3833 12.9901 28.1376 11.6435 28.583C10.297 29.0284 8.86483 29.1525 7.46172 28.9453C3.97101 28.4743 5.63935 25.7133 5.63935 25.7133C7.49873 22.1873 14.0291 19.7563 14.7612 19.5273C15.8614 19.1823 16.1905 19.2073 16.4015 19.8183C16.7383 20.9272 16.8053 22.1004 16.5971 23.2403C16.3888 24.3803 15.9113 25.4541 15.2043 26.3723L15.2163 26.3803ZM46.9688 11.2383C46.4111 13.7409 46.1138 16.2945 46.0816 18.8583C45.9225 20.6033 46.1186 21.0383 45.0214 22.2973C44.8939 22.4792 44.717 22.6208 44.5116 22.7053C44.3061 22.7898 44.0808 22.8138 43.8622 22.7743C43.6436 22.7349 43.4409 22.6337 43.278 22.4827C43.1151 22.3317 42.9988 22.1373 42.9429 21.9223C41.7607 18.8303 43.4561 12.6743 43.6431 11.8893C43.8961 10.8493 45.0914 10.7713 46.3876 10.5163C47.1218 10.3633 47.1108 10.6333 46.9588 11.2303L46.9688 11.2383ZM59.9714 15.0193C59.771 16.152 59.1603 17.1712 58.2561 17.8823C57.5079 18.3723 57.1458 18.3203 56.7108 17.2303C56.368 16.2377 56.368 15.1589 56.7108 14.1663C56.8454 13.7452 57.1233 13.3846 57.4962 13.1471C57.8692 12.9096 58.3136 12.8103 58.7522 12.8663C58.7522 12.8663 60.4905 13.0373 59.9614 15.0113L59.9714 15.0193Z" fill="white"/>
</svg>
